<svg xmlns="http://www.w3.org/2000/svg" width="1050" height="800" viewBox="0 0 1050 800">
  <defs>
    <style>
      .cls-1 {
        fill: #d5042b;
      }

      .cls-2, .cls-3, .cls-5 {
        fill: #002164;
      }

      .cls-3, .cls-4 {
        fill-rule: evenodd;
      }

      .cls-4 {
        fill: #fff;
      }

      .cls-5 {
        font-size: 100px;
        text-anchor: middle;
        font-family: "Saira SemiCondensed";
        font-weight: 700;
      }
    </style>
  </defs>
  <g>
    <circle class="cls-1" cx="504.594" cy="245.078" r="238.531"/>
    <circle id="Ellipse_1_copy" data-name="Ellipse 1 copy" class="cls-2" cx="491.281" cy="243.359" r="196.219"/>
    <path class="cls-3" d="M783.592,513.716c-26.29-27.774-56.952-30.65-88.769-31.689-32.855-1.072-66.124-1.391-98.359-6.965-60.607-10.481-102.292-65.757-94.62-124.2,22.332,32.265,55.438,30.936,87.339,32.29,24.876,1.055,49.892-.383,74.7,1.377C734.256,389.527,779.543,436.954,783.592,513.716Z"/>
    <path class="cls-4" d="M466.091,375.93c-1.082-33.829-2.14-67.2-3.221-100.573-0.458-14.155-.819-28.316-1.492-42.461-0.547-11.518,2.152-21.741,9.049-31.1,7.4-10.049,9.822-22.095,10.379-34.365,0.53-11.678.2-23.4,0.272-35.1,0.021-3.734-1.6-5.794-5.4-5.8-4-.006-5.11,2.448-5.109,6.026,0.006,11.547.118,23.1-.2,34.636-0.062,2.219-1.348,5.239-3.044,6.394-3.183,2.168-6.735-.868-6.782-5.626-0.108-11.084-.034-22.17-0.04-33.255,0-1.385.44-3.083-.18-4.082-0.99-1.6-2.695-3.766-4.1-3.77s-3.712,2.175-4.024,3.731c-0.651,3.256-.272,6.733-0.277,10.118-0.014,9.084.09,18.169-.046,27.251-0.075,4.959-3.944,7.923-7.26,5.49-1.486-1.089-2.527-3.793-2.57-5.792-0.244-11.387-.155-22.783-0.114-34.176,0.014-3.723-.461-6.925-5.141-6.931-3.824,0-5.386,1.811-5.244,6.848,0.42,14.9.2,29.892,1.833,44.661,0.848,7.658,4.874,15.018,7.9,22.327,1.578,3.815,1.544,4.565-2.632,4.583-12.954.056-25.909-.039-38.862,0.057-3.675.027-5.167-1.593-5.162-5.262q0.062-41.338,0-82.676c-0.011-5.01,3.056-5.126,6.666-5.124q85.633,0.056,171.268.025c3.766,0,7.534.094,11.3-.028,3.59-.117,5.248,1.411,5.241,5.171q-0.073,41.338-.011,82.676c0,3.683-1.52,5.255-5.19,5.216q-16.492-.173-32.988.009c-3.713.042-4.217-1.285-3.308-4.771,4.612-17.684,4.613-35.383-1.514-52.683a50.333,50.333,0,0,0-8.175-14.7c-7.116-8.751-16.641-8.518-24.045.063-7.477,8.666-10.285,19.375-11.794,30.457-1.872,13.754-1.113,27.417,3.534,40.536a67.817,67.817,0,0,0,7.563,14.579c4.8,7.237,7.939,14.967,7.676,23.7-1.33,44.008-2.839,88.009-4.294,132.012a16.5,16.5,0,0,1-.265,1.711h-50.18Z"/>
  </g>
  <path id="TexQue" class="cls-3" d="M113.351,754.029V563.806h55.964V517.795H4.168v46.011H59.79V754.029h53.561Zm205.658-87.214q0-38.114-3.434-55.625t-17.853-26.267q-14.421-8.755-47.382-8.756-33.306,0-48.754,9.271t-19.914,27.469q-4.465,18.2-4.463,53.908,0,36.4,4.463,54.251a40.56,40.56,0,0,0,20.772,26.783q16.3,8.932,51.673,8.927,15.789,0,32.446-1.545a206.729,206.729,0,0,0,26.952-3.949v-36.4q-32.961,2.753-47.724,2.747-19.57,0-27.3-2.4t-9.785-9.442q-2.06-7.034-2.06-25.581h92.359V666.815ZM249.654,614.28q9.954,0,14.42,2.232t6.18,9.614q1.714,7.389,1.717,24.894H226.65q0-17.164,1.545-24.55t6.18-9.786q4.635-2.4,15.279-2.4h0Zm247.89,139.749-50.128-89.274,48.068-85.841H444.326l-26.437,51.848h-2.4l-26.437-51.848h-53.9L383.555,665.1l-50.128,88.931h51.5l27.811-54.938h2.746l28.154,54.938h53.9ZM649.3,793.516h56.651V791.8l-33.647-50.818q13.728-11.331,17.682-34.336t3.948-70.733q0-53.9-4.635-77.085t-22.832-33.478q-18.2-10.3-60.772-10.3t-60.771,10.3q-18.2,10.3-22.661,33.478T517.8,635.912q0,53.911,4.463,77.085t22.661,33.478q18.195,10.3,60.771,10.3a184.115,184.115,0,0,0,20.257-1.03ZM605.7,713.169q-18.2,0-24.548-3.777t-8.069-18.027q-1.722-14.244-1.717-55.453t1.717-55.453q1.715-14.244,8.069-18.027t24.548-3.776q18.541,0,24.721,3.776t8.068,18.027q1.884,14.253,1.889,55.453t-1.889,55.453q-1.89,14.253-8.068,18.027T605.7,713.169h0ZM824.4,754.029H871.44V578.914H821.656v90.648q0,19.572-1.374,28.5t-6.008,12.533q-4.635,3.6-14.935,3.6t-14.249-2.232q-3.951-2.229-5.322-10.472T778.4,672.652V578.914H728.61v112.28q0,24.038,3.434,37.77t13.562,20.773q10.122,7.034,29.7,7.039,33.99,0,44.977-23.692h2.747Zm221.448-87.214q0-38.114-3.43-55.625t-17.85-26.267q-14.43-8.755-47.385-8.756-33.307,0-48.755,9.271t-19.913,27.469q-4.467,18.2-4.464,53.908,0,36.4,4.464,54.251a40.557,40.557,0,0,0,20.772,26.783q16.3,8.932,51.673,8.927,15.787,0,32.448-1.545a206.744,206.744,0,0,0,26.95-3.949v-36.4q-32.955,2.753-47.725,2.747-19.571,0-27.295-2.4t-9.786-9.442q-2.059-7.034-2.06-25.581h92.356V666.815ZM976.5,614.28q9.954,0,14.421,2.232t6.18,9.614q1.713,7.389,1.716,24.894H953.494q0-17.164,1.545-24.55t6.18-9.786q4.636-2.4,15.279-2.4h0Z"/>
  <text id="TexQue_copy" data-name="TexQue copy" class="cls-5" transform="translate(529.815 754.03) scale(3.433 3.434)"><tspan x="0">TexQue</tspan></text>
</svg>
