<svg id="watch" xmlns="http://www.w3.org/2000/svg" width="512" height="412" viewBox="0 0 512 412">
  <defs>
    <style>
      .cls-1 {
        fill: #f1f6ff;
      }

      .cls-1, .cls-2, .cls-3, .cls-4, .cls-5, .cls-6, .cls-7, .cls-8 {
        fill-rule: evenodd;
      }

      .cls-2 {
        fill: #c5d9ff;
      }

      .cls-3 {
        fill: #e36d83;
      }

      .cls-4 {
        fill: #002164;
      }

      .cls-5 {
        fill: #ecf1f7;
      }

      .cls-6 {
        fill: #fff;
      }

      .cls-7 {
        fill: #fdd3d9;
      }

      .cls-8 {
        fill: #243762;
        fill-opacity: 0.27;
      }
    </style>
  </defs>
  <path class="cls-1" d="M304.455,19.113c-55.026,0-110.977,35.03-104.572,96.224,0.03,0.273.061,0.67,0.095,1.173a27.71,27.71,0,0,1-27.156,29.474c-58.311,1.383-108.5,46.316-119.244,103.234-6.907,36.6,4.4,76.725,31.194,102.62,20,19.33,46.829,29.949,73.674,37.245,37.29,10.136,75.939,14.722,114.616,14.722a512.016,512.016,0,0,0,51.346-2.62c51.95-5.236,106.747-20.162,140.344-60.108,17.922-21.309,28.19-48.636,29.806-76.443a132.184,132.184,0,0,0-.607-22.55c-3.982-35.139-22.02-68.275-48.569-91.655-9.471-8.341-20.248-15.814-26.412-26.824-10.38-18.542-9.594-39.852-22.477-58.16A108.96,108.96,0,0,0,343.6,25.481a120.057,120.057,0,0,0-39.146-6.369"/>
  <path class="cls-2" d="M297.912,61.049c-43.134,0-86.992,27.392-81.971,75.245,0.023,0.214.047,0.524,0.073,0.917a21.689,21.689,0,0,1-21.285,23.048c-45.709,1.081-85.054,36.218-93.473,80.726-5.414,28.623,3.451,60,24.452,80.246,15.676,15.114,36.708,23.417,57.75,29.123A343.294,343.294,0,0,0,273.3,361.866a402.438,402.438,0,0,0,40.252-2.049c40.722-4.094,83.676-15.766,110.011-47,14.049-16.663,22.1-38.032,23.364-59.775a103.241,103.241,0,0,0-.475-17.633c-3.123-27.479-17.262-53.391-38.072-71.672-7.424-6.523-15.872-12.366-20.7-20.976-8.137-14.5-7.52-31.163-17.619-45.479A85.392,85.392,0,0,0,328.6,66.028a94.314,94.314,0,0,0-30.684-4.98"/>
  <path class="cls-3" d="M273.719,135.531A75.922,75.922,0,1,1,197.8,59.61,75.921,75.921,0,0,1,273.719,135.531Z"/>
  <path class="cls-4" d="M250.929,189.766a0.721,0.721,0,0,1-.509-1.23A74.667,74.667,0,1,0,144.853,82.914a0.72,0.72,0,1,1-1.018-1.019,76.107,76.107,0,0,1,107.6,107.66A0.717,0.717,0,0,1,250.929,189.766Z"/>
  <path class="cls-1" d="M254.911,134.8a57.842,57.842,0,1,1-57.842-57.842A57.842,57.842,0,0,1,254.911,134.8Z"/>
  <path class="cls-4" d="M196.34,192.648a58.565,58.565,0,0,1,0-117.13,0.726,0.726,0,0,1,0,1.453,57.113,57.113,0,0,0,0,114.226A0.726,0.726,0,0,1,196.34,192.648Z"/>
  <path class="cls-4" d="M205.028,152.026H189.641a5.84,5.84,0,0,1-5.725-5.935v-22.12a4.975,4.975,0,1,1,9.943,0v17.746h11.169A5.158,5.158,0,0,1,205.028,152.026Z"/>
  <path class="cls-4" d="M76.731,161.331l81.7,81.3a41.062,41.062,0,0,0,57.871,0l9.767-9.72a9.365,9.365,0,0,0,0-13.29l-33.337-33.176a9.476,9.476,0,0,0-13.355,0l-16.668,16.588a3.352,3.352,0,0,1-4.722,0L117.556,162.8a3.267,3.267,0,0,1,0-4.637l16.437-16.358a9.365,9.365,0,0,0,0-13.29L99.754,94.442a9.476,9.476,0,0,0-13.237-.115l-9.276,8.915A40.585,40.585,0,0,0,76.731,161.331Z"/>
  <g>
    <path class="cls-5" d="M91.167,94.215l45.8,46.118,1.57-1.581,7.21-7.259a9.535,9.535,0,0,0,0-13.417l-34.165-34.4a9.376,9.376,0,0,0-13.208-.116l-9.256,9Zm45.8,47.147-46.288-46.6-2.653-2.146,9.845-9.574a10.146,10.146,0,0,1,14.222.125l34.164,34.4a10.277,10.277,0,0,1,0,14.447ZM90.215,92.511L91.678,93.7l45.293,45.6,8.268-8.325a8.8,8.8,0,0,0,0-12.387l-34.163-34.4a8.7,8.7,0,0,0-12.2-.106Z"/>
    <path class="cls-4" d="M135.525,141.362l-46.288-46.6-2.653-2.146,9.846-9.574a10.146,10.146,0,0,1,14.222.125l34.163,34.4a10.275,10.275,0,0,1,0,14.447ZM88.769,92.511L90.232,93.7l45.293,45.6,8.268-8.325a8.8,8.8,0,0,0,0-12.387l-34.164-34.4a8.7,8.7,0,0,0-12.2-.106Z"/>
    <path id="Shape_13_copy" data-name="Shape 13 copy" class="cls-4" d="M94.453,87.1l27.415,27.477m0,0.711a0.709,0.709,0,0,1-.5-0.208L93.95,87.605a0.711,0.711,0,0,1,1-1.007l27.417,27.476A0.712,0.712,0,0,1,121.869,115.29Z"/>
  </g>
  <g>
    <path class="cls-5" d="M171.066,195.832l46.118,45.323,1.582-1.554,7.258-7.134a9.21,9.21,0,0,0,0-13.185l-34.4-33.805a9.606,9.606,0,0,0-13.3-.114l-9.319,8.844Z"/>
    <path class="cls-4" d="M217.576,244.043l-45.954-46.605-2.634-2.146,9.775-9.573a10.021,10.021,0,0,1,14.119.125l33.918,34.4a10.318,10.318,0,0,1,0,14.446Zm-46.419-48.851,1.452,1.189,44.967,45.6,8.209-8.325a8.848,8.848,0,0,0,0-12.387l-33.918-34.4a8.593,8.593,0,0,0-12.108-.107Z"/>
    <path class="cls-4" d="M194.241,208.584l27.416,27.476m0,0.712a0.707,0.707,0,0,1-.5-0.209l-27.417-27.476a0.711,0.711,0,0,1,1-1.007l27.416,27.476A0.713,0.713,0,0,1,221.657,236.772Z"/>
  </g>
  <path class="cls-2" d="M441.668,50.954a14.27,14.27,0,1,0,14.277,14.27,14.272,14.272,0,0,0-14.277-14.27M128.139,32.13a16.547,16.547,0,1,0,16.553,16.547A16.551,16.551,0,0,0,128.139,32.13M29,345.154a21.371,21.371,0,1,0,21.379,21.37A21.375,21.375,0,0,0,29,345.154"/>
  <path class="cls-4" d="M343.054,377.429L236.287,361.611a22.129,22.129,0,0,1-18.626-25.134L255.953,77.162A22.1,22.1,0,0,1,281.045,58.5L387.812,74.323a22.128,22.128,0,0,1,18.626,25.134L368.146,358.772A22.1,22.1,0,0,1,343.054,377.429Z"/>
  <path class="cls-5" d="M360.386,350.293L227.449,330.644l36.263-245L396.65,105.29Z"/>
  <path class="cls-3" d="M393.915,123.221L260.709,103.78l2.727-18.188,133.205,19.44Z"/>
  <path class="cls-6" d="M309.865,82.11a2.91,2.91,0,0,1-.412-0.03,2.8,2.8,0,0,1-1.84-1.061,2.609,2.609,0,0,1-.523-2,2.666,2.666,0,0,1,1.1-1.772,2.835,2.835,0,0,1,2.08-.5,2.8,2.8,0,0,1,1.841,1.061,2.606,2.606,0,0,1,.522,2h0A2.776,2.776,0,0,1,309.865,82.11Zm0-4a1.37,1.37,0,0,0-.8.256,1.28,1.28,0,0,0-.53.852,1.254,1.254,0,0,0,.251.963,1.352,1.352,0,0,0,.885.51,1.373,1.373,0,0,0,1-.242A1.282,1.282,0,0,0,311.2,79.6h0a1.251,1.251,0,0,0-.252-0.964,1.341,1.341,0,0,0-.883-0.51A1.452,1.452,0,0,0,309.86,78.113Zm43.4,10.176a2.938,2.938,0,0,1-.417-0.029L318.76,83.407a2.806,2.806,0,0,1-1.841-1.061,2.608,2.608,0,0,1-.522-2,2.667,2.667,0,0,1,1.1-1.772,2.884,2.884,0,0,1,2.082-.5l34.079,4.853a2.8,2.8,0,0,1,1.841,1.062,2.611,2.611,0,0,1,.523,2,2.671,2.671,0,0,1-1.1,1.772A2.855,2.855,0,0,1,353.256,88.289Zm-34.087-8.851a1.334,1.334,0,0,0-1.332,1.108,1.25,1.25,0,0,0,.251.963,1.35,1.35,0,0,0,.885.51l34.079,4.853a1.339,1.339,0,0,0,1.53-1.094,1.248,1.248,0,0,0-.251-0.962,1.347,1.347,0,0,0-.885-0.511l-34.079-4.853A1.4,1.4,0,0,0,319.169,79.439Z"/>
  <path class="cls-5" d="M289.459,361.837a8.445,8.445,0,0,1-6.805-3.461,8.636,8.636,0,0,1,1.752-11.989,8.41,8.41,0,0,1,11.849,1.774A8.587,8.587,0,0,1,289.459,361.837Zm-0.022-15.708a6.951,6.951,0,0,0-4.188,1.407,7.2,7.2,0,0,0-1.46,9.986,7,7,0,0,0,4.633,2.807,7.071,7.071,0,0,0,8.011-6.017,7.153,7.153,0,0,0-1.314-5.3,7,7,0,0,0-4.633-2.807A7.142,7.142,0,0,0,289.437,346.129Z"/>
  <g id="_1" data-name="1">
    <path class="cls-2" d="M350.682,281.58l-93.147-13.548a2.77,2.77,0,0,0-3.152,2.3L250.809,294.1a2.737,2.737,0,0,0,2.34,3.1l79.636,11.582,8.2,11.127,1.462-9.721,3.845,0.559a2.769,2.769,0,0,0,3.152-2.3l3.574-23.763A2.736,2.736,0,0,0,350.682,281.58Z"/>
    <path class="cls-4" d="M330.8,308.309a0.641,0.641,0,0,1-.106-0.009L252.16,296.474a3.412,3.412,0,0,1-2.269-1.381,3.547,3.547,0,0,1-.644-2.613l3.525-24.26a3.453,3.453,0,0,1,3.924-2.965l21.228,3.2a0.73,0.73,0,0,1-.21,1.445l-21.228-3.2a2.035,2.035,0,0,0-2.294,1.735l-3.525,24.26a2.069,2.069,0,0,0,.376,1.527,2,2,0,0,0,1.326.808l78.536,11.827A0.731,0.731,0,0,1,330.8,308.309Z"/>
    <path class="cls-6" d="M335.135,286.265a0.644,0.644,0,0,1-.107-0.009l-65.622-10a0.743,0.743,0,0,1-.611-0.847,0.717,0.717,0,0,1,.823-0.628l65.622,10a0.741,0.741,0,0,1,.61.846A0.732,0.732,0,0,1,335.135,286.265Zm-38.851,2.321a0.641,0.641,0,0,1-.106-0.009l-27.931-4.256a0.741,0.741,0,0,1-.61-0.846,0.72,0.72,0,0,1,.822-0.628L296.39,287.1a0.741,0.741,0,0,1,.61.846A0.732,0.732,0,0,1,296.284,288.586Zm-9.411,6.281a0.768,0.768,0,0,1-.106-0.008l-19.6-2.987a0.742,0.742,0,0,1-.61-0.847,0.727,0.727,0,0,1,.822-0.628l19.6,2.987a0.742,0.742,0,0,1,.61.847A0.732,0.732,0,0,1,286.873,294.867Zm47.1-.537a0.653,0.653,0,0,1-.107-0.009l-28.865-4.4a0.742,0.742,0,0,1-.61-0.847,0.722,0.722,0,0,1,.822-0.628l28.865,4.4a0.743,0.743,0,0,1,.611.847A0.732,0.732,0,0,1,333.977,294.33Z"/>
  </g>
  <g>
    <path class="cls-7" d="M263.32,220.343l93.147,13.625a2.75,2.75,0,0,1,2.34,3.118l-3.574,23.9a2.771,2.771,0,0,1-3.152,2.314L272.444,251.65l-11.128,8.362,1.462-9.776-3.845-.563a2.75,2.75,0,0,1-2.34-3.117l3.575-23.9A2.771,2.771,0,0,1,263.32,220.343Z"/>
    <path class="cls-4" d="M353.229,263.436a3.352,3.352,0,0,1-.517-0.039l-49.395-7.171a0.71,0.71,0,1,1,.212-1.4l49.395,7.171a2.061,2.061,0,0,0,1.511-.373,1.978,1.978,0,0,0,.8-1.311l3.551-23.571a2.007,2.007,0,0,0-1.715-2.269,0.712,0.712,0,0,1-.61-0.806,0.722,0.722,0,0,1,.821-0.6,3.431,3.431,0,0,1,2.935,3.88l-3.552,23.571a3.386,3.386,0,0,1-1.369,2.244A3.5,3.5,0,0,1,353.229,263.436Z"/>
    <path class="cls-5" d="M340.926,238.074a0.768,0.768,0,0,1-.106-0.008l-65.289-9.477a0.707,0.707,0,1,1,.211-1.4l65.289,9.477a0.707,0.707,0,0,1,.607.8A0.717,0.717,0,0,1,340.926,238.074Zm-38.652,2.2a0.632,0.632,0,0,1-.106-0.009l-27.789-4.033a0.708,0.708,0,0,1-.607-0.8,0.721,0.721,0,0,1,.819-0.595l27.788,4.033a0.709,0.709,0,0,1,.607.8A0.717,0.717,0,0,1,302.274,240.274Zm28.873,11.5a0.708,0.708,0,0,1-.111-0.008L274.69,243.19a0.708,0.708,0,0,1-.6-0.806,0.722,0.722,0,0,1,.823-0.591l56.346,8.579a0.708,0.708,0,0,1,.6.806A0.719,0.719,0,0,1,331.147,251.777Zm8.627-6.059a0.631,0.631,0,0,1-.106-0.008l-28.718-4.169a0.707,0.707,0,1,1,.211-1.4l28.718,4.169a0.708,0.708,0,0,1,.607.8A0.716,0.716,0,0,1,339.774,245.718Z"/>
  </g>
  <g id="_1_copy" data-name="1 copy">
    <path class="cls-2" d="M366.591,180.346L273.444,166.8a2.769,2.769,0,0,0-3.153,2.3l-3.574,23.762a2.737,2.737,0,0,0,2.34,3.1l79.636,11.583,8.2,11.127,1.463-9.721,3.844,0.559a2.769,2.769,0,0,0,3.152-2.3l3.575-23.763A2.737,2.737,0,0,0,366.591,180.346Z"/>
    <path class="cls-4" d="M346.709,207.074a0.768,0.768,0,0,1-.106-0.008l-78.535-11.827a3.409,3.409,0,0,1-2.269-1.381,3.551,3.551,0,0,1-.644-2.613l3.525-24.26a3.454,3.454,0,0,1,3.924-2.965l21.228,3.2a0.73,0.73,0,0,1-.21,1.444l-21.228-3.2A2.036,2.036,0,0,0,270.1,167.2l-3.525,24.261a2.077,2.077,0,0,0,.376,1.526,2,2,0,0,0,1.326.808l78.536,11.828A0.731,0.731,0,0,1,346.709,207.074Z"/>
    <path class="cls-6" d="M351.043,185.031a0.653,0.653,0,0,1-.107-0.009l-65.622-10a0.742,0.742,0,0,1-.61-0.846,0.716,0.716,0,0,1,.822-0.628l65.622,10a0.743,0.743,0,0,1,.611.847A0.732,0.732,0,0,1,351.043,185.031Zm-38.85,2.32a0.643,0.643,0,0,1-.107-0.008l-27.93-4.256a0.743,0.743,0,0,1-.611-0.847,0.722,0.722,0,0,1,.823-0.628l27.93,4.256a0.742,0.742,0,0,1,.61.847A0.731,0.731,0,0,1,312.193,187.351Zm-9.411,6.282a0.644,0.644,0,0,1-.107-0.009l-19.6-2.987a0.741,0.741,0,0,1-.61-0.846,0.727,0.727,0,0,1,.822-0.628l19.6,2.987a0.741,0.741,0,0,1,.61.846A0.731,0.731,0,0,1,302.782,193.633Zm47.1-.538a0.641,0.641,0,0,1-.106-0.009l-28.865-4.4a0.742,0.742,0,0,1-.611-0.846,0.721,0.721,0,0,1,.823-0.628l28.865,4.4a0.742,0.742,0,0,1,.61.847A0.731,0.731,0,0,1,349.885,193.1Z"/>
  </g>
  <g id="Group_6_copy" data-name="Group 6 copy">
    <path class="cls-7" d="M279.228,119.108l93.148,13.626a2.75,2.75,0,0,1,2.34,3.117l-3.575,23.9a2.771,2.771,0,0,1-3.152,2.314l-79.637-11.649-11.128,8.363L278.686,149l-3.844-.562a2.75,2.75,0,0,1-2.34-3.118l3.574-23.9A2.771,2.771,0,0,1,279.228,119.108Z"/>
    <path class="cls-4" d="M369.138,162.2a3.484,3.484,0,0,1-.518-0.039l-49.395-7.172a0.709,0.709,0,1,1,.212-1.4l49.395,7.171a2.061,2.061,0,0,0,1.511-.373,1.978,1.978,0,0,0,.8-1.311L374.7,135.5a2.008,2.008,0,0,0-1.716-2.269,0.71,0.71,0,0,1-.609-0.805,0.723,0.723,0,0,1,.821-0.6,3.43,3.43,0,0,1,2.934,3.88l-3.551,23.572a3.393,3.393,0,0,1-1.37,2.244A3.5,3.5,0,0,1,369.138,162.2Z"/>
    <path class="cls-5" d="M356.835,136.84a0.644,0.644,0,0,1-.107-0.009l-65.289-9.476a0.707,0.707,0,1,1,.211-1.4l65.289,9.476a0.707,0.707,0,0,1,.607.8A0.716,0.716,0,0,1,356.835,136.84Zm-38.653,2.2a0.639,0.639,0,0,1-.106-0.008L290.288,135a0.708,0.708,0,0,1-.607-0.8,0.72,0.72,0,0,1,.818-0.595l27.788,4.034a0.708,0.708,0,0,1,.607.8A0.716,0.716,0,0,1,318.182,139.039Zm28.874,11.5a0.829,0.829,0,0,1-.111-0.008L290.6,141.956a0.709,0.709,0,0,1-.6-0.807,0.724,0.724,0,0,1,.823-0.591l56.346,8.579a0.709,0.709,0,0,1,.6.807A0.718,0.718,0,0,1,347.056,150.543Zm8.626-6.059a0.768,0.768,0,0,1-.106-0.008l-28.718-4.169a0.707,0.707,0,1,1,.211-1.4l28.718,4.168a0.709,0.709,0,0,1,.607.8A0.717,0.717,0,0,1,355.682,144.484Z"/>
  </g>
  <path class="cls-6" d="M273.88,99.162a2.766,2.766,0,0,1-.419-0.032,3.05,3.05,0,0,1-1.279-5.371A2.708,2.708,0,0,1,274.3,93.2a2.98,2.98,0,0,1,2.4,3.4h0A2.9,2.9,0,0,1,273.88,99.162Zm0-4.463a1.334,1.334,0,0,0-.827.289,1.477,1.477,0,0,0-.548.963,1.516,1.516,0,0,0,.26,1.088,1.373,1.373,0,0,0,.914.576,1.409,1.409,0,0,0,1.582-1.236h0a1.511,1.511,0,0,0-.26-1.088,1.371,1.371,0,0,0-.914-0.576A1.388,1.388,0,0,0,273.875,94.7Zm7.878,5.689a2.762,2.762,0,0,1-.424-0.033,2.981,2.981,0,0,1-2.4-3.4,2.882,2.882,0,0,1,3.233-2.526,2.808,2.808,0,0,1,1.869,1.179,3.1,3.1,0,0,1,.53,2.225,3.015,3.015,0,0,1-1.119,1.968A2.737,2.737,0,0,1,281.753,100.388Zm-0.008-4.464a1.42,1.42,0,0,0-1.377,1.252,1.512,1.512,0,0,0,.26,1.088,1.373,1.373,0,0,0,.914.576,1.326,1.326,0,0,0,1.034-.273,1.466,1.466,0,0,0,.547-0.963h0a1.511,1.511,0,0,0-.259-1.089A1.356,1.356,0,0,0,281.745,95.924Zm7.721,5.666a2.715,2.715,0,0,1-.418-0.033,2.981,2.981,0,0,1-2.4-3.4,2.881,2.881,0,0,1,3.233-2.526,2.983,2.983,0,0,1,2.4,3.4A2.9,2.9,0,0,1,289.466,101.59Zm0-4.465a1.338,1.338,0,0,0-.827.29,1.466,1.466,0,0,0-.547.963,1.511,1.511,0,0,0,.259,1.088,1.37,1.37,0,0,0,.914.577,1.414,1.414,0,0,0,1.582-1.236,1.46,1.46,0,0,0-1.174-1.665A1.362,1.362,0,0,0,289.462,97.125Z"/>
  <path class="cls-3" d="M226.085,362.489L78.046,379.309a5.192,5.192,0,0,1-5.729-4.607L61.632,279.065a0.275,0.275,0,0,1,.241-0.305l157.76-17.924a0.274,0.274,0,0,1,.3.243l10.689,95.672A5.18,5.18,0,0,1,226.085,362.489ZM77.462,380.07a5.931,5.931,0,0,1-5.862-5.288L60.915,279.146a1,1,0,0,1,.877-1.109l157.76-17.924a0.992,0.992,0,0,1,1.1.883l10.69,95.675a5.915,5.915,0,0,1-1.244,4.35,5.82,5.82,0,0,1-3.93,2.191L78.127,380.033A5.969,5.969,0,0,1,77.462,380.07ZM62.4,279.432L73.034,374.62a4.462,4.462,0,0,0,4.931,3.967L226,361.766l0.081,0.723L226,361.766a4.39,4.39,0,0,0,2.965-1.651,4.461,4.461,0,0,0,.937-3.282l-10.638-95.225Z"/>
  <path class="cls-4" d="M77.462,380.07a5.931,5.931,0,0,1-5.862-5.288L60.915,279.146a1,1,0,0,1,.877-1.109l157.76-17.924a0.992,0.992,0,0,1,1.1.883l10.69,95.675a5.915,5.915,0,0,1-1.244,4.35,5.82,5.82,0,0,1-3.93,2.191L78.127,380.033A5.969,5.969,0,0,1,77.462,380.07ZM62.4,279.432L73.034,374.62a4.462,4.462,0,0,0,4.931,3.967L226,361.766l0.081,0.723L226,361.766a4.39,4.39,0,0,0,2.965-1.651,4.461,4.461,0,0,0,.937-3.282l-10.638-95.225Z"/>
  <path class="cls-7" d="M219.08,260.034l-0.031,0L61.116,277.761a0.272,0.272,0,0,0-.241.3l64.886,39.917c0.32,2.827-43.8,59.213-41.229,59.213h0.023l134.01-16.632c2.827-.318-52.923-44.2-53.242-47.021l54.028-53.263a0.273,0.273,0,0,0-.271-0.242"/>
  <path class="cls-7" d="M61.369,278.1l65.387-64.747a11.863,11.863,0,0,1,14.61-1.67l77.719,48.329a0.165,0.165,0,0,1-.068.3L61.1,278.131m0.081,0.72-0.12-1.066-0.2-.2,0.157-.156,0-.018,0.023,0,65.209-64.57a12.552,12.552,0,0,1,15.5-1.771l77.72,48.33a0.889,0.889,0,0,1-.365,1.637Zm73.934-68.231a11.117,11.117,0,0,0-7.848,3.248l-63.906,63.28,153.979-17.37L140.984,212.3A11.138,11.138,0,0,0,135.112,210.62Z"/>
  <path class="cls-4" d="M61.178,278.851l-0.12-1.066-0.2-.2,0.157-.156,0-.018,0.023,0,65.209-64.57a12.552,12.552,0,0,1,15.5-1.771l77.72,48.33a0.889,0.889,0,0,1-.365,1.637Zm73.934-68.231a11.117,11.117,0,0,0-7.848,3.248l-63.906,63.28,153.979-17.37L140.984,212.3A11.138,11.138,0,0,0,135.112,210.62Z"/>
  <g>
    <path class="cls-6" d="M69.54,229.471l103.478-11.7c6.783-.766,12.819,3.4,13.482,9.308l6.651,59.221-28.776,26.535-38.025,4.3L88.791,293.568l-6.444-57.377Zm56.641,88.416L88.111,294l-6.44-57.341-9.854-8.174,101.119-11.43a13.981,13.981,0,0,1,9.528,2.274A10.754,10.754,0,0,1,187.22,227l6.692,59.587-29.221,26.945ZM89.47,293.139l37.05,23.248,37.539-4.244,28.332-26.125-6.61-58.855a9.315,9.315,0,0,0-4.137-6.639A12.54,12.54,0,0,0,173.1,218.5L71.97,229.928l11.054,5.8Z"/>
    <path class="cls-4" d="M126.518,317.887L88.635,294l-6.408-57.341-9.805-8.174,100.622-11.43a13.858,13.858,0,0,1,9.481,2.274A10.758,10.758,0,0,1,187.256,227l6.659,59.587-29.077,26.945Zm-36.53-24.748,36.867,23.248,37.355-4.244L192.4,286.018l-6.577-58.855a9.324,9.324,0,0,0-4.117-6.639,12.43,12.43,0,0,0-8.5-2.028L72.573,229.928l11,5.8Z"/>
  </g>
  <g>
    <path class="cls-5" d="M85.41,263.771l-18.2,2.044-2.926-25.877a8.719,8.719,0,0,1,7.708-9.632l0.828-.093a8.735,8.735,0,0,1,9.666,7.681Z"/>
    <path class="cls-4" d="M65.57,265.781l-3.027-26.722a9.384,9.384,0,0,1,2.02-6.973,9.489,9.489,0,0,1,6.386-3.509l0.834-.092a9.53,9.53,0,0,1,7.012,2.009,9.4,9.4,0,0,1,3.531,6.351l3.027,26.719Zm7.3-35.9a8.368,8.368,0,0,0-.92.051l-0.834.093a8.017,8.017,0,0,0-5.4,2.969A7.936,7.936,0,0,0,64,238.9l2.862,25.27,16.865-1.889-2.864-25.271A8.052,8.052,0,0,0,72.868,229.885Z"/>
  </g>
  <path class="cls-8" d="M145.368,294.755a14.826,14.826,0,0,0-12.1,6.221L84,375.726l134.492-15.21L155.205,298.5a14.772,14.772,0,0,0-9.837-3.741"/>
  <path class="cls-4" d="M100.675,252.409a0.713,0.713,0,0,1-.081-1.423l75.126-8.334a0.715,0.715,0,1,1,.163,1.42l-75.126,8.333A0.763,0.763,0,0,1,100.675,252.409Zm2.878,25.145a0.714,0.714,0,0,1-.081-1.424L178.6,267.8a0.714,0.714,0,1,1,.163,1.419l-75.125,8.333C103.607,277.552,103.579,277.554,103.553,277.554ZM102.1,264.837a0.714,0.714,0,0,1-.081-1.424l32.464-3.6a0.726,0.726,0,0,1,.8.63,0.716,0.716,0,0,1-.639.789l-32.464,3.6A0.767,0.767,0,0,1,102.1,264.837Zm40.964-4.546a0.713,0.713,0,0,1-.081-1.423l34.162-3.789a0.727,0.727,0,0,1,.8.631,0.718,0.718,0,0,1-.64.789l-34.161,3.788A0.763,0.763,0,0,1,143.061,260.291Zm-37.877,31.522a0.714,0.714,0,0,1-.081-1.424l32.464-3.6a0.73,0.73,0,0,1,.8.63,0.717,0.717,0,0,1-.64.789l-32.464,3.6C105.239,291.811,105.211,291.813,105.184,291.813Z"/>
  <path class="cls-3" d="M134.72,308.821L85.45,377.2l134.492-15.114-63.288-55.724A14.907,14.907,0,0,0,134.72,308.821Z"/>
  <path class="cls-7" d="M147.673,320.794a10.838,10.838,0,0,0-8.846,4.556L102.8,375.742l98.35-11.139-46.281-41.07a10.792,10.792,0,0,0-7.193-2.739"/>
  <path class="cls-4" d="M84,378.64l50.1-69.767,0.587,0.422-0.587-.422a15.558,15.558,0,0,1,22.943-2.588l64.351,56.862Zm62.731-74.808a14.1,14.1,0,0,0-11.46,5.886l-48.2,67.119,130.92-14.764-61.911-54.7A14.137,14.137,0,0,0,146.731,303.832Z"/>
  <path class="cls-4" d="M62.668,278.009L127,318.683m-0.381.621L62.288,278.629l0.761-1.239,64.335,40.674Z"/>
  <path class="cls-4" d="M219.44,260.565L165.491,314.48M166,314.994l-1.015-1.029,53.949-53.915,1.015,1.029Z"/>
</svg>
