<?xml version="1.0" encoding="utf-8"?>
<!-- Generator: Adobe Illustrator 21.0.0, SVG Export Plug-In . SVG Version: 6.00 Build 0)  -->
<svg version="1.1" id="Layer_1" xmlns="http://www.w3.org/2000/svg" xmlns:xlink="http://www.w3.org/1999/xlink" x="0px" y="0px"
	 viewBox="0 0 600 200" style="enable-background:new 0 0 600 200;" xml:space="preserve">
<style type="text/css">
	.st0{display:none;fill:#FFFFFF;}
	.st1{fill:#FFFFFF;}
	.st2{font-family:'Montserrat-Medium';}
	.st3{font-size:40px;}
	.st4{font-family:'Montserrat-SemiBold';}
	.st5{font-size:60px;}
	.st6{fill:#32BBFF;}
	.st7{fill:#2C9FD9;}
	.st8{fill:#29CC5E;}
	.st9{fill:#D93F21;}
	.st10{fill:#FFD500;}
	.st11{fill:#FFAA00;}
</style>
<path id="Rounded_Rectangle_1" d="M27,8h544c11,0,20,9,20,20v145c0,11-9,20-20,20H27c-11,0-20-9-20-20V28C7,17,16,8,27,8z"/>
<path class="st0" d="M108,53c-5.1,0.4-11.1,3.6-14.6,7.9c-3.2,3.9-5.8,9.6-4.8,15.2c5.6,0.2,11.4-3.2,14.7-7.5
	C106.5,64.5,108.9,58.8,108,53z M128.2,85.2c-4.9-6.2-11.8-9.7-18.3-9.7c-8.6,0-12.3,4.1-18.2,4.1c-6.2,0-10.9-4.1-18.3-4.1
	c-7.3,0-15.1,4.5-20,12.1c-6.9,10.8-5.8,31,5.5,48.2c4,6.2,9.4,13.1,16.4,13.2c6.3,0.1,8-4,16.5-4.1s10.1,4.1,16.3,4
	c7-0.1,12.7-7.7,16.7-13.9c2.4-3.7,4.5-7.6,6.2-11.6C114.7,117.2,112.1,94.1,128.2,85.2L128.2,85.2z"/>
<text transform="matrix(1 0 0 1 175.8643 76.5425)" class="st1 st2 st3">Available on the</text>
<text transform="matrix(1 0 0 1 175.8643 152.3667)" class="st1 st4 st5">Google Play</text>
<g>
	<path class="st6" d="M120.7,85.7c-11.1-6.2-28.8-16.1-56.3-31.5c-1.9-1.2-4-1.4-5.8-0.8l47.2,47.2L120.7,85.7z"/>
	<path class="st6" d="M58.5,53.4c-0.3,0.1-0.7,0.3-1,0.4c-2,1.1-3.5,3.2-3.5,5.9v81.8c0,2.7,1.5,4.8,3.5,5.9c0.3,0.2,0.7,0.3,1,0.4
		l47.2-47.2L58.5,53.4z"/>
	<path class="st6" d="M105.8,100.6l-47.2,47.2c1.8,0.6,4,0.5,5.8-0.8c26.7-14.9,44.2-24.8,55.4-31c0.3-0.2,0.6-0.3,0.9-0.5
		L105.8,100.6z"/>
</g>
<path class="st7" d="M54,100.6v40.9c0,2.7,1.5,4.8,3.5,5.9c0.3,0.2,0.7,0.3,1,0.4l47.2-47.2C105.7,100.6,54,100.6,54,100.6z"/>
<path class="st8" d="M64.4,54.2c-2.2-1.5-4.8-1.4-6.8-0.3l47.5,47.5l15.7-15.7C109.6,79.5,91.9,69.6,64.4,54.2z"/>
<path class="st9" d="M105,99.9l-47.5,47.5c2,1.1,4.6,1.1,6.8-0.3c26.7-14.9,44.2-24.8,55.4-31c0.3-0.2,0.6-0.3,0.9-0.5L105,99.9z"/>
<path class="st10" d="M140.4,100.6c0-2.3-1.1-4.6-3.4-5.8c0,0-4.2-2.4-17.2-9.6l-15.4,15.4l15.5,15.5c12.8-7.2,17.2-9.6,17.2-9.6
	C139.3,105.2,140.4,102.9,140.4,100.6z"/>
<path class="st11" d="M137,106.5c2.3-1.3,3.4-3.6,3.4-5.8h-36.1l15.5,15.5C132.6,108.9,137,106.5,137,106.5z"/>
</svg>
